HIERARCHY
ROOT RootJoint
{
    OFFSET   0.000000   0.000000   0.000000
    CHANNELS 6 Xposition Yposition Zposition Xrotation Yrotation Zrotation
    JOINT pelvis_lowerback
    {
        OFFSET   0.000000   0.093605   0.000000
        CHANNELS 3 Xrotation Yrotation Zrotation
        JOINT lowerback_torso
        {
            OFFSET   0.000000   0.100000   0.000000
            CHANNELS 3 Xrotation Yrotation Zrotation
            JOINT torso_head
            {
                OFFSET   0.000000   0.282350   0.000000
                CHANNELS 3 Xrotation Yrotation Zrotation
                End Site
                {
                    OFFSET   0.000000   0.192650   0.000000
                }
            }
            JOINT rTorso_Clavicle
            {
                OFFSET  -0.001000   0.157500   0.000000
                CHANNELS 3 Xrotation Yrotation Zrotation
                JOINT rShoulder
                {
                    OFFSET  -0.117647   0.000000   0.000000
                    CHANNELS 3 Xrotation Yrotation Zrotation
                    JOINT rElbow
                    {
                        OFFSET  -0.245000   0.000000   0.000000
                        CHANNELS 3 Xrotation Yrotation Zrotation
                        JOINT rWrist
                        {
                            OFFSET  -0.240000   0.000000   0.000000
                            CHANNELS 3 Xrotation Yrotation Zrotation
                            End Site
                            {
                                OFFSET  -0.116353  -0.002500   0.000000
                            }
                        }
                    }
                }
            }
            JOINT lTorso_Clavicle
            {
                OFFSET   0.001000   0.157500   0.000000
                CHANNELS 3 Xrotation Yrotation Zrotation
                JOINT lShoulder
                {
                    OFFSET   0.117647   0.000000   0.000000
                    CHANNELS 3 Xrotation Yrotation Zrotation
                    JOINT lElbow
                    {
                        OFFSET   0.245000   0.000000   0.000000
                        CHANNELS 3 Xrotation Yrotation Zrotation
                        JOINT lWrist
                        {
                            OFFSET   0.240000   0.000000   0.000000
                            CHANNELS 3 Xrotation Yrotation Zrotation
                            End Site
                            {
                                OFFSET   0.116353  -0.002500   0.000000
                            }
                        }
                    }
                }
            }
        }
    }
    JOINT rHip
    {
        OFFSET  -0.100000  -0.051395   0.000000
        CHANNELS 3 Xrotation Yrotation Zrotation
        JOINT rKnee
        {
            OFFSET   0.000000  -0.410000   0.000000
            CHANNELS 3 Xrotation Yrotation Zrotation
            JOINT rAnkle
            {
                OFFSET   0.000000  -0.390000   0.000000
                CHANNELS 3 Xrotation Yrotation Zrotation
                JOINT rToeJoint
                {
                    OFFSET   0.000000  -0.050000   0.130000
                    CHANNELS 3 Xrotation Yrotation Zrotation
                    End Site
                    {
                        OFFSET  -0.010000   0.002000   0.060000
                    }
                }
            }
        }
    }
    JOINT lHip
    {
        OFFSET   0.100000  -0.051395   0.000000
        CHANNELS 3 Xrotation Yrotation Zrotation
        JOINT lKnee
        {
            OFFSET   0.000000  -0.410000   0.000000
            CHANNELS 3 Xrotation Yrotation Zrotation
            JOINT lAnkle
            {
                OFFSET   0.000000  -0.390000   0.000000
                CHANNELS 3 Xrotation Yrotation Zrotation
                JOINT lToeJoint
                {
                    OFFSET   0.000000  -0.050000   0.130000
                    CHANNELS 3 Xrotation Yrotation Zrotation
                    End Site
                    {
                        OFFSET   0.010000   0.002000   0.060000
                    }
                }
            }
        }
    }
}
MOTION
Frames: 8
Frame Time:   0.008333
 -2.483679   0.902112   3.867044  -1.058639   5.541608   5.956182   9.635461   0.922865   1.623051   2.817315   2.025637  -0.323308  -2.136522   1.295164  -1.495216   1.529371   4.606731   3.385504   6.542011  28.411879  32.148694  -0.005764  84.921278   0.003327  -2.070858   3.721263   9.338504   0.264680   4.246237  -7.587510  -5.108003  11.094823 -39.963137  -0.031885 -54.071752  -0.031209  -5.246156  -4.908879   3.919408 -17.366030  -8.956243  -9.565976  31.645800   0.000679  -0.003517 -14.659444 -11.867395  -3.785798   0.163396   0.000009   0.000002 -12.416026   8.542865   9.580290  34.441368   0.010867   0.004331  -6.348025  12.082121  -2.383321  -2.310669  -0.000095   0.000255
 -2.484472   0.902486   3.865987  -1.024421   5.809688   5.883705   9.506384   0.965812   1.658308   2.775498   1.982633  -0.245747  -2.171014   1.261359  -1.479667   1.555390   4.424216   3.558930   6.884505  28.098003  32.169695  -0.006143  84.583251   0.003398  -1.858676   3.857114   9.226347   0.283315   4.229511  -7.681899  -4.551468  10.693263 -40.157597  -0.033853 -52.778794  -0.032893  -5.020094  -5.033647   3.799111 -17.306438  -9.044258  -9.437256  31.377596   0.000556  -0.003362 -14.489552 -12.095419  -3.826060   0.158934   0.000008   0.000002 -12.068549   8.841667   9.363725  34.978163   0.010689   0.004849  -6.854430  12.167741  -2.265721  -2.279254  -0.000042   0.000333
 -2.485145   0.902824   3.864923  -0.985191   6.106710   5.809604   9.367726   0.991769   1.703649   2.729252   1.924662  -0.169592  -2.212804   1.230313  -1.460822   1.603021   4.230701   3.730636   7.224062  27.782746  32.193716  -0.006424  84.248303   0.003407  -1.641284   3.904151   9.115051   0.314615   4.212645  -7.799085  -4.016065  10.323536 -40.354214  -0.034664 -51.545600  -0.033164  -4.809662  -4.994130   3.635071 -17.259913  -9.145970  -9.322820  31.124911   0.000432  -0.003223 -14.328798 -12.333528  -3.864580   0.156278   0.000007   0.000001 -11.708605   9.141569   9.144330  35.470709   0.010446   0.005245  -7.327148  12.247438  -2.155731  -2.245788   0.000006   0.000411
 -2.485733   0.903116   3.863804  -0.941104   6.414815   5.731441   9.230698   1.008271   1.752823   2.682862   1.861564  -0.097114  -2.255503   1.201449  -1.441242   1.658952   4.037020   3.894056   7.549845  27.478956  32.219251  -0.006766  83.930102   0.003596  -1.426938   3.907782   9.013790   0.350392   4.200681  -7.924742  -3.510133   9.980987 -40.545919  -0.034384 -50.389810  -0.032309  -4.611265  -4.905778   3.453384 -17.231519  -9.253310  -9.215767  30.890535   0.000321  -0.003073 -14.173123 -12.573037  -3.900707   0.154507   0.000006   0.000001 -11.344733   9.429116   8.929585  35.936191   0.010141   0.005484  -7.768294  12.321087  -2.052462  -2.214064   0.000042   0.000464
 -2.486255   0.903364   3.862609  -0.892892   6.726906   5.648629   9.099992   1.019397   1.802160   2.638709   1.797939  -0.029039  -2.296702   1.174475  -1.421994   1.716866   3.849661   4.048119   7.857851  27.190886  32.245389  -0.007199  83.630756   0.003993  -1.219019   3.893002   8.920896   0.386673   4.191599  -8.050914  -3.035934   9.661555 -40.728300  -0.033309 -49.309671  -0.030736  -4.421998  -4.806934   3.266973 -17.221471  -9.363927  -9.113480  30.672995   0.000228  -0.002911 -14.019508 -12.809930  -3.933727   0.153089   0.000005   0.000001 -10.982008   9.701563   8.723048  36.377019   0.009775   0.005581  -8.179909  12.389186  -1.955437  -2.184053   0.000068   0.000496
 -2.486720   0.903571   3.861331  -0.841466   7.040083   5.561331   8.977740   1.027405   1.849612   2.597811   1.735956   0.034492  -2.335513   1.149240  -1.403595   1.773785   3.671752   4.192938   8.146884  26.920055  32.271708  -0.007682  83.350298   0.004539  -1.018743   3.870596   8.834583   0.421468   4.183840  -8.173411  -2.593460   9.362545 -40.899415  -0.031700 -48.301348  -0.028731  -4.240638  -4.709840   3.081799 -17.228445  -9.476927  -9.015085  30.470251   0.000151  -0.002743 -13.866116 -13.042663  -3.963407   0.151810   0.000004   0.000001 -10.624312   9.958307   8.526190  36.793710   0.009357   0.005562  -8.564004  12.452191  -1.864275  -2.155846   0.000086   0.000510
 -2.487132   0.903743   3.859968  -0.787919   7.352843   5.470044   8.864821   1.033738   1.894075   2.560622   1.676773   0.093532  -2.371615   1.125633  -1.386295   1.828310   3.504609   4.328933   8.417031  26.666704  32.297962  -0.008164  83.088097   0.005157  -0.826461   3.845529   8.753880   0.453871   4.176595  -8.290128  -2.181605   9.082117 -41.058677  -0.029758 -47.360582  -0.026495  -4.066566  -4.618860   2.900887 -17.250522  -9.591737  -8.920479  30.280556   0.000089  -0.002572 -13.711944 -13.270617  -3.989776   0.150622   0.000003   0.000001 -10.274459  10.199543   8.339490  37.186786   0.008902   0.005453  -8.922457  12.510511  -1.778636  -2.129511   0.000097   0.000511
 -2.487465   0.903972   3.858761  -0.753788   7.700971   5.385299   8.726936   1.038371   1.933685   2.522179   1.609625   0.149654  -2.405473   1.082158  -1.348012   1.874688   3.346875   4.502451   8.723816  26.365909  32.383325  -0.010219  82.555938   0.006499  -0.604439   4.034083   8.637068   0.480378   4.138467  -8.394950  -1.696661   8.677700 -41.237226  -0.030928 -46.131956  -0.027390  -3.826486  -4.690217   2.779050 -17.229788  -9.745205  -8.846908  30.065282   0.000018  -0.002477 -13.556678 -13.495546  -3.992121   0.146350   0.000003   0.000000  -9.808363  10.511724   8.161384  37.248941   0.007355   0.004581  -9.148583  12.603073  -1.692987  -2.067867   0.000159   0.000720
